<svg id="Capa_1" enable-background="new 0 0 512 512" height="512" viewBox="0 0 512 512" width="512" xmlns="http://www.w3.org/2000/svg"><g><g><g><g><path d="m448.657 48.012h-385.314c-30.836 0-55.843 25.296-55.843 56.49v227.088c0 31.194 25.007 56.49 55.843 56.49h140.779l-14.072 55.518c-3.686 14.54 12.363 25.963 24.649 17.557l106.816-73.075h127.142c30.836 0 55.843-25.296 55.843-56.49v-227.089c0-31.193-25.007-56.489-55.843-56.489z" fill="#62cbec"/></g></g><g><path d="m448.657 48.012h-6.707c-43.869 163.788-193.323 284.395-370.95 284.395-21.631 0-42.844-1.79-63.5-5.227v4.41c0 31.193 25.007 56.49 55.843 56.49h140.779l-14.072 55.518c-3.686 14.54 12.363 25.963 24.649 17.557l106.816-73.075h127.142c30.836 0 55.843-25.296 55.843-56.49v-227.089c0-31.193-25.007-56.489-55.843-56.489z" fill="#1dc5b5"/></g></g><g><path d="m448.657 40.512h-278.039c-4.143 0-7.5 3.358-7.5 7.5s3.357 7.5 7.5 7.5h278.039c26.656 0 48.343 21.977 48.343 48.989v227.089c0 27.013-21.687 48.989-48.343 48.989h-104.705c-4.143 0-7.5 3.358-7.5 7.5s3.357 7.5 7.5 7.5h104.705c34.928 0 63.343-28.706 63.343-63.989v-227.089c0-35.283-28.415-63.989-63.343-63.989z"/><path d="m308.996 387.557-98.531 67.407c-4.497 3.077-8.531.744-9.66-.044-1.173-.819-4.893-3.924-3.484-9.48l14.072-55.518c.568-2.243.069-4.623-1.352-6.449s-3.605-2.894-5.919-2.894h-140.779c-26.656 0-48.343-21.977-48.343-48.989v-227.089c0-27.013 21.687-48.989 48.343-48.989h72.229c4.143 0 7.5-3.358 7.5-7.5s-3.357-7.5-7.5-7.5h-72.229c-34.928 0-63.343 28.706-63.343 63.989v227.089c0 35.284 28.415 63.989 63.343 63.989h131.141l-11.704 46.175c-2.469 9.742 1.236 19.737 9.438 25.464 4.075 2.846 8.76 4.27 13.446 4.27 4.614 0 9.23-1.38 13.27-4.144l98.531-67.407c3.419-2.339 4.295-7.006 1.956-10.425-2.34-3.418-7.007-4.294-10.425-1.955z"/></g></g></svg>